<svg id="圖層_1" data-name="圖層 1" xmlns="http://www.w3.org/2000/svg" viewBox="0 0 127.56 127.56"><defs><style>.cls-1,.cls-10,.cls-11,.cls-12,.cls-13,.cls-14,.cls-15,.cls-4,.cls-5,.cls-6,.cls-7,.cls-8,.cls-9{fill:none;stroke-linecap:round;stroke-linejoin:round;}.cls-1,.cls-10,.cls-11,.cls-12,.cls-13,.cls-14,.cls-15,.cls-2,.cls-4,.cls-5,.cls-6,.cls-7,.cls-8,.cls-9{stroke:#69cf2d;}.cls-2,.cls-3{fill:#69cf2d;}.cls-2{stroke-miterlimit:10;}.cls-4{stroke-dasharray:1.06 3.19;}.cls-5{stroke-dasharray:1.07 3.2;}.cls-6{stroke-dasharray:1.01 3.04;}.cls-7{stroke-dasharray:1.02 3.05;}.cls-8{stroke-dasharray:0.92 2.76;}.cls-9{stroke-dasharray:1.07 3.21;}.cls-10{stroke-dasharray:0.91 2.73;}.cls-11{stroke-dasharray:0.97 2.9;}.cls-12{stroke-dasharray:1.07 3.21;}.cls-13{stroke-dasharray:1 3.01;}.cls-14{stroke-dasharray:0.99 2.98;}.cls-15{stroke-dasharray:0.97 2.9;}</style></defs><title>icon</title><circle class="cls-1" cx="43.42" cy="66.65" r="7.63"/><circle class="cls-1" cx="67.96" cy="66.65" r="7.63"/><path class="cls-1" d="M51.05,66.65l2.05-.73a7.68,7.68,0,0,1,5.18,0l2,.73"/><path class="cls-1" d="M88.44,38.35c0,9.32-8.35,14.06-18.32,13.5-9.33-.53-12.76-6-25-6-11.7,0-17.1,6.59-17.1,6.59v-8c0-6.4,5.3-15.47,16.67-15.47,15.07,0,19.78,3.61,30.55,3.61,11.52,0,13.15-.92,13.15-.92Z"/><path class="cls-1" d="M29,67.57C29,78,34.14,97.44,55.69,97.44"/><path class="cls-1" d="M82.34,67.57c0,10.46-5.1,29.87-26.65,29.87"/><path class="cls-1" d="M29,61.54s-5.83-1.78-5.83,2.78c0,3.05,3.55,3.77,5.83,2.93"/><path class="cls-1" d="M82.34,61.54s5.84-1.78,5.84,2.78c0,3.05-3.55,3.77-5.84,2.93"/><path class="cls-2" d="M54.77,80.24a3.6,3.6,0,0,0-6.09.77c-1.61,3.15-3.22,3.95-6.18,4,0,0,4.58,3.72,8.8,2.28C56,85.73,55.81,81.93,54.77,80.24Z"/><path class="cls-2" d="M56.61,80.24A3.6,3.6,0,0,1,62.7,81c1.62,3.15,3.23,3.95,6.19,4,0,0-4.58,3.72-8.81,2.28C55.35,85.73,55.57,81.93,56.61,80.24Z"/><path class="cls-1" d="M60.79,75.4c0,2.65-2.61,3.48-4.79,3.48s-4.8-.83-4.8-3.48"/><ellipse class="cls-1" cx="55.69" cy="86.74" rx="3.03" ry="3.98"/><path class="cls-1" d="M39.17,55.82s2.51-1.76,6.65,0"/><path class="cls-1" d="M71.06,55.82s-2.51-1.76-6.65,0"/><circle class="cls-3" cx="55.69" cy="79.83" r="1.16"/><line class="cls-1" x1="28.55" y1="40.93" x2="28.91" y2="40.59"/><line class="cls-4" x1="31.23" y1="38.4" x2="39.35" y2="30.76"/><line class="cls-1" x1="40.51" y1="29.66" x2="40.88" y2="29.32"/><line class="cls-1" x1="28.07" y1="46.47" x2="28.43" y2="46.13"/><line class="cls-5" x1="30.76" y1="43.93" x2="45.14" y2="30.4"/><line class="cls-1" x1="46.3" y1="29.31" x2="46.67" y2="28.96"/><line class="cls-1" x1="28.18" y1="51.45" x2="28.54" y2="51.11"/><line class="cls-6" x1="30.76" y1="49.03" x2="50.31" y2="30.62"/><line class="cls-1" x1="51.42" y1="29.58" x2="51.78" y2="29.24"/><line class="cls-1" x1="38.82" y1="46.53" x2="39.18" y2="46.19"/><line class="cls-7" x1="41.4" y1="44.09" x2="55.1" y2="31.2"/><line class="cls-1" x1="56.21" y1="30.16" x2="56.57" y2="29.82"/><line class="cls-1" x1="44.97" y1="45.82" x2="45.34" y2="45.48"/><line class="cls-8" x1="47.35" y1="43.59" x2="59.74" y2="31.93"/><line class="cls-1" x1="60.74" y1="30.98" x2="61.11" y2="30.64"/><line class="cls-1" x1="50.03" y1="46.15" x2="50.4" y2="45.81"/><line class="cls-9" x1="52.73" y1="43.61" x2="64.02" y2="32.98"/><line class="cls-1" x1="65.19" y1="31.88" x2="65.55" y2="31.54"/><line class="cls-1" x1="54.35" y1="47.18" x2="54.71" y2="46.83"/><line class="cls-10" x1="56.7" y1="44.96" x2="68.98" y2="33.41"/><line class="cls-1" x1="69.97" y1="32.47" x2="70.34" y2="32.13"/><line class="cls-1" x1="58.35" y1="48.49" x2="58.72" y2="48.15"/><line class="cls-11" x1="60.83" y1="46.16" x2="73.87" y2="33.88"/><line class="cls-1" x1="74.92" y1="32.89" x2="75.29" y2="32.55"/><line class="cls-1" x1="62.14" y1="50.02" x2="62.5" y2="49.68"/><line class="cls-12" x1="64.84" y1="47.48" x2="79.26" y2="33.9"/><line class="cls-1" x1="80.43" y1="32.8" x2="80.8" y2="32.46"/><line class="cls-1" x1="66.19" y1="51.29" x2="66.56" y2="50.95"/><line class="cls-13" x1="68.75" y1="48.89" x2="85.21" y2="33.4"/><line class="cls-1" x1="86.31" y1="32.36" x2="86.67" y2="32.02"/><line class="cls-1" x1="71.06" y1="51.88" x2="71.43" y2="51.54"/><line class="cls-14" x1="73.6" y1="49.49" x2="86.99" y2="36.89"/><line class="cls-1" x1="88.07" y1="35.87" x2="88.44" y2="35.53"/><line class="cls-1" x1="77.07" y1="51.31" x2="77.43" y2="50.97"/><line class="cls-15" x1="79.55" y1="48.98" x2="86.95" y2="42.01"/><line class="cls-1" x1="88.01" y1="41.02" x2="88.37" y2="40.68"/><line class="cls-1" x1="103.38" y1="52.24" x2="103.38" y2="55.18"/><line class="cls-1" x1="103.38" y1="62.19" x2="103.38" y2="59.25"/><line class="cls-1" x1="98.41" y1="57.21" x2="101.35" y2="57.21"/><line class="cls-1" x1="108.35" y1="57.21" x2="105.41" y2="57.21"/><path class="cls-1" d="M96.74,79.8a2.48,2.48,0,0,0,2.47-2.47V71.67a2.47,2.47,0,0,0-2.47-2.46h-.28A2.46,2.46,0,0,0,94,71.67l0,6.27"/><rect class="cls-1" x="97.89" y="77.1" width="5.21" height="10.59" rx="2.46" ry="2.46" transform="translate(18.09 182.89) rotate(-90)"/><rect class="cls-1" x="97.89" y="82.31" width="5.21" height="10.59" rx="2.46" ry="2.46" transform="translate(12.89 188.1) rotate(-90)"/><rect class="cls-1" x="97.89" y="87.51" width="5.21" height="10.59" rx="2.46" ry="2.46" transform="translate(7.68 193.3) rotate(-90)"/><rect class="cls-1" x="97.89" y="92.72" width="5.21" height="10.59" rx="2.46" ry="2.46" transform="translate(2.48 198.51) rotate(-90)"/><path class="cls-1" d="M90.92,79.72a14.48,14.48,0,0,0,0,19"/></svg>