<svg id="圖層_1" data-name="圖層 1" xmlns="http://www.w3.org/2000/svg" viewBox="0 0 127.56 127.56"><defs><style>.cls-1,.cls-3,.cls-4,.cls-5{fill:none;}.cls-1,.cls-2,.cls-3,.cls-4,.cls-5{stroke:#00b65d;stroke-linecap:round;stroke-linejoin:round;}.cls-2{fill:#00b65d;}.cls-3{stroke-dasharray:0.98 2.94;}.cls-4{stroke-dasharray:1 3;}.cls-5{stroke-dasharray:1.03 3.08;}</style></defs><title>icon</title><polygon class="cls-1" points="25.56 93.19 9.83 91.9 9.83 43.83 25.56 39.54 25.56 93.19"/><polygon class="cls-1" points="45.64 95.75 28.83 94.47 28.83 38.68 45.64 34.39 45.64 95.75"/><polygon class="cls-1" points="65.71 98.32 48.91 97.04 48.91 33.53 65.71 29.24 65.71 98.32"/><polygon class="cls-2" points="72.71 95.19 65.71 98.32 65.71 29.24 72.71 32.67 72.71 95.19"/><polyline class="cls-1" points="48.91 94.55 45.64 95.75 45.64 34.39 48.98 36.03"/><polyline class="cls-2" points="28.83 91.99 25.56 93.19 25.56 39.54 28.83 41.14"/><line class="cls-1" x1="28.83" y1="49.67" x2="45.1" y2="45.93"/><line class="cls-1" x1="28.83" y1="61.27" x2="45.1" y2="58.32"/><line class="cls-1" x1="29.37" y1="72.98" x2="45.1" y2="71.96"/><line class="cls-1" x1="29.37" y1="84.19" x2="45.1" y2="84.45"/><line class="cls-1" x1="17.69" y1="41.68" x2="17.69" y2="42.18"/><line class="cls-3" x1="17.69" y1="45.12" x2="17.69" y2="90.65"/><line class="cls-1" x1="17.69" y1="92.12" x2="17.69" y2="92.62"/><line class="cls-4" x1="21.63" y1="40.61" x2="21.63" y2="92.62"/><line class="cls-1" x1="13.56" y1="42.93" x2="13.56" y2="43.43"/><line class="cls-5" x1="13.56" y1="46.51" x2="13.56" y2="90.13"/><line class="cls-1" x1="13.56" y1="91.67" x2="13.56" y2="92.17"/><polygon class="cls-1" points="59.39 97.84 54.75 97.48 54.75 59.39 59.39 58.51 59.39 97.84"/><line class="cls-1" x1="55.92" y1="61.46" x2="55.92" y2="97.59"/><line class="cls-1" x1="59.39" y1="60.86" x2="55.92" y2="61.46"/><line class="cls-1" x1="54.75" y1="59.39" x2="55.92" y2="61.46"/><polyline class="cls-1" points="92.06 66.14 121.73 64.73 109.06 71.29 80.39 66.74"/><polygon class="cls-1" points="105.89 73.37 80.39 66.74 85.1 86.16 105.89 73.37"/><polyline class="cls-1" points="80.39 66.74 109.06 71.29 110.49 87.16 97.69 78.43"/><line class="cls-1" x1="105.89" y1="73.37" x2="110.49" y2="87.16"/><line class="cls-1" x1="109.49" y1="48.49" x2="109.49" y2="51.44"/><line class="cls-1" x1="109.49" y1="58.44" x2="109.49" y2="55.5"/><line class="cls-1" x1="104.52" y1="53.47" x2="107.46" y2="53.47"/><line class="cls-1" x1="114.46" y1="53.47" x2="111.52" y2="53.47"/></svg>