<svg id="圖層_1" data-name="圖層 1" xmlns="http://www.w3.org/2000/svg" viewBox="0 0 127.56 127.56"><defs><style>.cls-1{fill:none;stroke:#f6a500;stroke-linecap:round;stroke-linejoin:round;}.cls-2{fill:#f6a500;}</style></defs><title>icon</title><polygon class="cls-1" points="16.43 90.49 16.43 53.59 85.42 90.49 16.43 90.49"/><polyline class="cls-1" points="16.43 90.49 85.42 90.49 85.42 53.59 50.93 72.04"/><line class="cls-1" x1="82.6" y1="52.08" x2="85.42" y2="53.59"/><polyline class="cls-1" points="45.92 37.82 50.93 35.14 55.94 37.82"/><line class="cls-1" x1="16.43" y1="53.59" x2="19.26" y2="52.08"/><polyline class="cls-1" points="19.26 55.03 19.26 45.58 82.6 45.58 82.6 55.03"/><polyline class="cls-1" points="22.83 45.58 22.83 41.7 79.03 41.7 79.03 45.58"/><polyline class="cls-1" points="27.27 41.7 27.27 37.82 74.58 37.82 74.58 41.7"/><path class="cls-2" d="M48.74,55.11a1.11,1.11,0,0,0-.47,1,1.16,1.16,0,0,0,.46,1,2,2,0,0,0,1.31.37h.34V54.83h-.5A2.06,2.06,0,0,0,48.74,55.11Z"/><path class="cls-2" d="M50.93,49.87A8.1,8.1,0,1,0,59,58,8.1,8.1,0,0,0,50.93,49.87Zm.86,13h-.31v1h-1.1v-1h-3V61.7h3V58.6H50a3.13,3.13,0,0,1-2-.6,2.24,2.24,0,0,1-.9-1.92,2.17,2.17,0,0,1,1-2,3.09,3.09,0,0,1,1.71-.48h.5v-1h1.1v1h2.86v1.2H51.48v2.58h.44a3.1,3.1,0,0,1,1.82.53A2.38,2.38,0,0,1,54.69,60,2.56,2.56,0,0,1,51.79,62.9Z"/><path class="cls-2" d="M51.92,58.6h-.44v3.1h.31a2.32,2.32,0,0,0,1.29-.29A1.7,1.7,0,0,0,53.59,60C53.59,59.07,53,58.6,51.92,58.6Z"/><line class="cls-1" x1="61.48" y1="49.87" x2="77.85" y2="49.87"/><line class="cls-1" x1="24.01" y1="49.87" x2="40.37" y2="49.87"/><ellipse class="cls-1" cx="104.91" cy="73.65" rx="8.25" ry="3.97"/><path class="cls-1" d="M113.16,77.62c0,2.19-3.7,4-8.25,4s-8.25-1.78-8.25-4"/><path class="cls-1" d="M113.16,81.9c0,2.19-3.7,4-8.25,4s-8.25-1.78-8.25-4"/><path class="cls-1" d="M113.16,86.17c0,2.2-3.7,4-8.25,4s-8.25-1.77-8.25-4"/><path class="cls-1" d="M113.16,90.45c0,2.19-3.7,4-8.25,4s-8.25-1.78-8.25-4"/><ellipse class="cls-1" cx="105.74" cy="52.28" rx="3.97" ry="8.25" transform="translate(13.8 126.19) rotate(-65.1)"/><path class="cls-1" d="M111.55,59.36c-.92,2-5,2-9.15.13s-6.73-5.09-5.81-7.08"/><line class="cls-1" x1="113.22" y1="55.76" x2="111.55" y2="59.36"/><line class="cls-1" x1="98.26" y1="48.81" x2="96.59" y2="52.41"/><line class="cls-1" x1="116.16" y1="36.68" x2="116.16" y2="39.62"/><line class="cls-1" x1="116.16" y1="46.62" x2="116.16" y2="43.68"/><line class="cls-1" x1="111.18" y1="41.65" x2="114.12" y2="41.65"/><line class="cls-1" x1="121.13" y1="41.65" x2="118.19" y2="41.65"/></svg>