<svg id="圖層_1" data-name="圖層 1" xmlns="http://www.w3.org/2000/svg" viewBox="0 0 127.56 127.56"><defs><style>.cls-1,.cls-2{fill:none;}.cls-1,.cls-2,.cls-3{stroke:#ffe500;stroke-linecap:round;stroke-linejoin:round;}.cls-2{stroke-dasharray:1 3;}.cls-3{fill:#ffe500;}</style></defs><title>icon</title><line class="cls-1" x1="103.6" y1="46.65" x2="103.6" y2="49.66"/><line class="cls-1" x1="103.6" y1="56.84" x2="103.6" y2="53.82"/><line class="cls-1" x1="98.5" y1="51.74" x2="101.52" y2="51.74"/><line class="cls-1" x1="108.69" y1="51.74" x2="105.68" y2="51.74"/><path class="cls-1" d="M105.32,72.51a10,10,0,0,0-19.93,0,9.86,9.86,0,0,0,1,4.37h0l4.28,6.48H100l4.29-6.48h0A10,10,0,0,0,105.32,72.51Z"/><path class="cls-1" d="M90.68,83.36H100a0,0,0,0,1,0,0v7.56a1.23,1.23,0,0,1-1.23,1.23H91.91a1.23,1.23,0,0,1-1.23-1.23V83.36A0,0,0,0,1,90.68,83.36Z"/><path class="cls-1" d="M98.49,93.88l-1.66,1.81a2,2,0,0,1-3,0L92.2,93.88"/><line class="cls-1" x1="90.68" y1="86.29" x2="100.02" y2="86.29"/><line class="cls-1" x1="90.68" y1="89.22" x2="100.02" y2="89.22"/><polyline class="cls-1" points="90.08 75.39 94.34 71.52 97 75.39 101.25 71.52"/><line class="cls-1" x1="95.35" y1="83.36" x2="95.35" y2="78.82"/><polygon class="cls-1" points="43.11 98.58 20.86 86.96 20.86 73.47 43.11 85.08 43.11 98.58"/><line class="cls-2" x1="20.86" y1="76.7" x2="43.11" y2="88.31"/><line class="cls-2" x1="20.86" y1="80.22" x2="43.11" y2="91.83"/><line class="cls-2" x1="20.86" y1="83.74" x2="43.11" y2="95.35"/><line class="cls-2" x1="33.87" y1="57.37" x2="56.12" y2="68.98"/><line class="cls-2" x1="33.87" y1="60.89" x2="56.12" y2="72.5"/><line class="cls-2" x1="33.87" y1="64.41" x2="56.12" y2="76.02"/><line class="cls-2" x1="46.88" y1="38.04" x2="69.13" y2="49.66"/><line class="cls-2" x1="46.88" y1="41.56" x2="69.13" y2="53.18"/><line class="cls-2" x1="46.88" y1="45.09" x2="69.13" y2="56.7"/><polygon class="cls-1" points="56.12 79.25 33.87 67.64 33.87 54.15 56.12 65.76 56.12 79.25"/><polygon class="cls-1" points="69.13 59.92 46.88 48.31 46.88 34.82 69.13 46.43 69.13 59.92"/><polygon class="cls-1" points="56.12 79.25 33.87 67.64 20.86 73.47 43.11 85.08 56.12 79.25"/><line class="cls-1" x1="82.14" y1="40.6" x2="82.14" y2="62.7"/><line class="cls-1" x1="81.44" y1="81.38" x2="43.11" y2="98.57"/><polygon class="cls-1" points="69.13 59.92 46.88 48.31 33.87 54.15 56.12 65.76 69.13 59.92"/><polygon class="cls-1" points="82.14 40.6 59.89 28.98 46.88 34.82 69.13 46.43 82.14 40.6"/><polygon class="cls-3" points="65.08 76.66 76.88 71.36 71.58 64.98 65.08 76.66"/><polygon class="cls-3" points="73.95 72.9 69.48 74.87 69.48 86.96 73.95 84.99 73.95 72.9"/></svg>