<svg id="圖層_1" data-name="圖層 1" xmlns="http://www.w3.org/2000/svg" viewBox="0 0 99.21 99.21"><defs><style>.cls-1{fill:#609931;}.cls-2,.cls-3{fill:none;stroke:#609931;stroke-linecap:round;stroke-linejoin:round;stroke-width:1.5px;}.cls-3{stroke-dasharray:3 4;}</style></defs><title>icon</title><path class="cls-1" d="M62.28,66.85a.86.86,0,0,0-.78,0,.82.82,0,0,0-.41.64,1.33,1.33,0,0,0,.19.87,1.29,1.29,0,0,0,.65.62.77.77,0,0,0,.75,0,.83.83,0,0,0,.44-.63,1.53,1.53,0,0,0-.84-1.5Z"/><path class="cls-1" d="M53.65,65.78a.89.89,0,0,0-.78,0,.84.84,0,0,0-.41.64,1.37,1.37,0,0,0,.19.88,1.33,1.33,0,0,0,.65.62.76.76,0,0,0,.76,0,.82.82,0,0,0,.43-.65,1.33,1.33,0,0,0-.19-.88A1.43,1.43,0,0,0,53.65,65.78Z"/><path class="cls-1" d="M68,67l-2-2.29.62-2.94-2.83-1L62.88,58l-3,.54-2.24-2-2.28,1.94-2.94-.61-1,2.83-2.85.93.54,3-2,2.23,2,2.29L48.49,72l2.82,1,.94,2.85,3-.54,2.24,2,2.29-1.94,2.93.61,1-2.83,2.85-.94L66,69.26Zm-11.89.49a2.49,2.49,0,0,1-1.31,1.68,2.4,2.4,0,0,1-2.1.23,2.64,2.64,0,0,1-1.5-1.28,2.71,2.71,0,0,1-.31-1.94,2.42,2.42,0,0,1,1.28-1.68,2.46,2.46,0,0,1,2.13-.23,2.71,2.71,0,0,1,1.49,1.28A2.68,2.68,0,0,1,56.09,67.52Zm2.19,5.74-1.48.12.48-11.85,1.5-.11Zm6.43-4.69a2.52,2.52,0,0,1-1.3,1.7,2.45,2.45,0,0,1-2.11.22,2.69,2.69,0,0,1-1.49-1.27,2.72,2.72,0,0,1-.3-2,2.37,2.37,0,0,1,1.27-1.63,2.57,2.57,0,0,1,2.12-.24,2.75,2.75,0,0,1,1.5,1.29A2.7,2.7,0,0,1,64.71,68.57Z"/><polygon class="cls-2" points="67.98 67.03 66.03 64.74 66.65 61.8 63.82 60.8 62.88 57.95 59.93 58.49 57.69 56.49 55.41 58.43 52.47 57.82 51.46 60.65 48.61 61.59 49.15 64.54 47.16 66.77 49.1 69.06 48.49 72 51.31 73 52.25 75.85 55.2 75.31 57.44 77.31 59.73 75.37 62.66 75.98 63.67 73.15 66.52 72.21 65.98 69.26 67.98 67.03"/><path class="cls-2" d="M51,40.69l3.83-2.15a4.81,4.81,0,0,1,6.56,1.84L82.19,77.51a4.81,4.81,0,0,1-1.84,6.55L61,94.93a4.83,4.83,0,0,1-6.56-1.84L33.6,56a4.82,4.82,0,0,1,1.84-6.56l13.67-7.67"/><line class="cls-3" x1="79.92" y1="73.45" x2="52.16" y2="89.03"/><path class="cls-2" d="M50.5,38a4.79,4.79,0,0,1,4.44.28"/><path class="cls-2" d="M52.32,94.33l-.92.4a4.81,4.81,0,0,1-6.35-2.44L27.77,53.37A4.81,4.81,0,0,1,30.21,47l17.51-7.78"/><line class="cls-3" x1="49.92" y1="85.04" x2="43.16" y2="88.04"/><path class="cls-2" d="M51.6,51.18a3.26,3.26,0,1,1,.16-1.6A3.26,3.26,0,0,1,51.6,51.18Z"/><path class="cls-2" d="M37.64,30.49C37.87,36,39.32,38.94,40,42.66"/><path class="cls-2" d="M48,49.42c3.21-2.37,7-7.76-3.49-17.35-11.83-10.83-23.63-10.16-23-19.69s11.94-13.9,14.92.41A75.38,75.38,0,0,1,37.88,27"/></svg>