<svg id="圖層_1" data-name="圖層 1" xmlns="http://www.w3.org/2000/svg" viewBox="0 0 99.21 99.21"><defs><style>.cls-1{fill:none;}.cls-1,.cls-3{stroke:#609931;stroke-linecap:round;stroke-linejoin:round;stroke-width:1.5px;}.cls-2,.cls-3{fill:#609931;}</style></defs><title>icon</title><polyline class="cls-1" points="63.17 82.23 24.16 82.23 24.16 21.14 37.67 21.14"/><polyline class="cls-1" points="62.72 21.14 77.4 21.14 77.4 68.68"/><path class="cls-1" d="M52.92,18.07V15.62a2.64,2.64,0,1,0-5.27,0v2.45H40.27v6.15h20V18.07Z"/><line class="cls-1" x1="51.38" y1="59.86" x2="60.71" y2="59.86"/><line class="cls-1" x1="40.27" y1="59.86" x2="48.16" y2="59.86"/><line class="cls-1" x1="59.04" y1="63.77" x2="60.71" y2="63.77"/><line class="cls-1" x1="40.27" y1="63.77" x2="56.05" y2="63.77"/><line class="cls-1" x1="46.95" y1="67.68" x2="60.71" y2="67.68"/><line class="cls-1" x1="40.27" y1="67.68" x2="43.56" y2="67.68"/><line class="cls-1" x1="54.89" y1="71.59" x2="60.71" y2="71.59"/><line class="cls-1" x1="40.27" y1="71.59" x2="52.04" y2="71.59"/><path class="cls-2" d="M53.62,38.5V30.72H47V38.5H39.17v6.67H47V53h6.67V45.17H61.4V38.5ZM59,42.25H50.47v8.57h-.84V42.25H41.06v-.84h8.57V32.84h.84v8.57H59Z"/><polyline class="cls-3" points="67.11 82.23 77.4 68.68 67.11 68.68 67.11 82.23"/><polygon class="cls-1" points="53.62 38.5 53.62 30.71 46.95 30.71 46.95 38.5 39.17 38.5 39.17 45.16 46.95 45.16 46.95 52.95 53.62 52.95 53.62 45.16 61.4 45.16 61.4 38.5 53.62 38.5"/></svg>