<svg id="圖層_1" data-name="圖層 1" xmlns="http://www.w3.org/2000/svg" viewBox="0 0 99.21 99.21"><defs><style>.cls-1,.cls-2{fill:none;stroke:#609931;stroke-linecap:round;stroke-linejoin:round;stroke-width:1.5px;}.cls-2{stroke-dasharray:3 3.99;}.cls-3{fill:#609931;}</style></defs><title>icon</title><path class="cls-1" d="M32.12,12.21H73.7a0,0,0,0,1,0,0v70A6.75,6.75,0,0,1,66.94,89H38.87a6.75,6.75,0,0,1-6.75-6.75v-70a0,0,0,0,1,0,0Z"/><path class="cls-1" d="M32.12,12.21H73.7a0,0,0,0,1,0,0v0A12.48,12.48,0,0,1,61.22,24.68H44.59A12.48,12.48,0,0,1,32.12,12.21v0A0,0,0,0,1,32.12,12.21Z"/><line class="cls-1" x1="36.83" y1="22.44" x2="36.83" y2="23.94"/><path class="cls-2" d="M36.83,27.93V81.06a3.88,3.88,0,0,0,3.88,3.88H65.1A3.88,3.88,0,0,0,69,81.06V25.93"/><line class="cls-1" x1="68.98" y1="23.94" x2="68.98" y2="22.44"/><rect class="cls-3" x="47.81" y="45.09" width="10.2" height="10.2" transform="translate(-20 52.11) rotate(-45)"/><path class="cls-3" d="M52.91,38.45,41.16,50.19,52.91,61.93,64.65,50.19ZM53.44,59a.79.79,0,0,1-.53.22.75.75,0,0,1-.53-.22L44.1,50.72a.75.75,0,0,1,0-1.06l8.28-8.27a.75.75,0,0,1,1.06,0l8.27,8.27a.75.75,0,0,1,0,1.06Z"/><rect class="cls-1" x="44.6" y="41.89" width="16.6" height="16.6" transform="translate(-20 52.11) rotate(-45)"/></svg>