<svg id="圖層_1" data-name="圖層 1" xmlns="http://www.w3.org/2000/svg" viewBox="0 0 99.21 99.21"><defs><style>.cls-1{fill:none;}.cls-1,.cls-2{stroke:#609931;stroke-linecap:round;stroke-linejoin:round;stroke-width:1.5px;}.cls-2,.cls-3{fill:#609931;}</style></defs><title>icon</title><polygon class="cls-1" points="56.68 57.06 40.21 57.06 36.82 40.12 60.06 40.12 56.68 57.06"/><polyline class="cls-1" points="35.53 34.2 33.27 21.42 36.84 17.59"/><circle class="cls-2" cx="36.97" cy="17.59" r="1.91"/><line class="cls-1" x1="36.84" y1="17.59" x2="30.66" y2="24.23"/><circle class="cls-1" cx="48.44" cy="68" r="5.56"/><path class="cls-1" d="M40.21,90.75V80.94a7,7,0,0,1,7-7h2.54a7,7,0,0,1,7,7v9.81"/><path class="cls-1" d="M53.15,80.37v8.71a2.87,2.87,0,0,1-2.87,2.86H46.6a2.86,2.86,0,0,1-2.86-2.86V80.37"/><circle class="cls-1" cx="48.44" cy="12.99" r="5.56"/><line class="cls-1" x1="43.74" y1="34.07" x2="43.74" y2="25.36"/><line class="cls-1" x1="53.15" y1="25.36" x2="53.15" y2="34.07"/><circle class="cls-1" cx="69.52" cy="54.9" r="5.56"/><path class="cls-1" d="M61.29,77.65V67.84a7,7,0,0,1,7-7H70.8a7,7,0,0,1,7,7v9.81"/><path class="cls-1" d="M74.23,67.26V76a2.87,2.87,0,0,1-2.86,2.87H67.68A2.87,2.87,0,0,1,64.82,76V67.26"/><circle class="cls-1" cx="27.36" cy="54.9" r="5.56"/><path class="cls-1" d="M19.12,77.65V67.84a7,7,0,0,1,7-7h2.54a7,7,0,0,1,7,7v9.81"/><path class="cls-1" d="M32.06,67.26V76a2.87,2.87,0,0,1-2.86,2.87H25.52A2.88,2.88,0,0,1,22.65,76V67.26"/><path class="cls-1" d="M40.22,34.17V25.94a7,7,0,0,1,7-7h2.54a7,7,0,0,1,6.74,5.21.8.8,0,0,0,1.39.3L62.2,19"/><rect class="cls-1" x="31.66" y="34.19" width="33.57" height="5.92"/><rect class="cls-3" x="31.66" y="34.19" width="33.57" height="1.46"/><rect class="cls-3" x="31.66" y="36.66" width="33.57" height="3.46"/><path class="cls-3" d="M36.82,40.12l3.39,16.94H56.68l3.38-16.94Zm17.84,6.22-3.08,2.55a.32.32,0,0,0-.11.33l1,3.87a.32.32,0,0,1-.48.35l-3.38-2.15a.34.34,0,0,0-.34,0l-3.38,2.15a.32.32,0,0,1-.48-.35l1-3.87a.34.34,0,0,0-.1-.33l-3.09-2.55a.32.32,0,0,1,.18-.56l4-.25a.32.32,0,0,0,.27-.2l1.48-3.72a.32.32,0,0,1,.59,0l1.47,3.72a.32.32,0,0,0,.27.2l4,.25A.32.32,0,0,1,54.66,46.34Z"/></svg>