<svg id="圖層_1" data-name="圖層 1" xmlns="http://www.w3.org/2000/svg" viewBox="0 0 99.21 99.21"><defs><style>.cls-1,.cls-3{fill:none;stroke:#609931;stroke-linecap:round;stroke-linejoin:round;}.cls-1{stroke-width:1.5px;}.cls-2{fill:#609931;}</style></defs><title>icon</title><path class="cls-1" d="M49.63,75.89s-4.88-4-16.37-4-16.37,2-16.37,2v-52s4.89-1,16.37-1,16.37,4,16.37,4Z"/><path class="cls-1" d="M37.46,51.58a35.19,35.19,0,0,1,5.35.89"/><path class="cls-1" d="M23.9,52.43a39.07,39.07,0,0,1,9.36-1"/><path class="cls-1" d="M31.43,54.9q.89,0,1.83,0A39.59,39.59,0,0,1,42.81,56"/><path class="cls-1" d="M23.9,55.91A35,35,0,0,1,28,55.17"/><path class="cls-1" d="M39.69,58.82a31.3,31.3,0,0,1,3.12.62"/><path class="cls-1" d="M23.9,59.39a39.59,39.59,0,0,1,9.36-1c.94,0,1.83,0,2.68.08"/><path class="cls-1" d="M42.81,76.31a44.67,44.67,0,0,0-14-.42c-11.33,1.89-15.19,3.83-15.19,3.83v-51A27.48,27.48,0,0,1,16.89,26"/><polyline class="cls-1" points="79.09 24.88 85.64 24.88 85.64 75.89 52.91 75.89 52.91 24.88 66.26 24.88"/><path class="cls-1" d="M70.86,10.61h0a3.07,3.07,0,0,1,3.07,3.07V48.45a0,0,0,0,1,0,0H67.79a0,0,0,0,1,0,0V13.68A3.07,3.07,0,0,1,70.86,10.61Z" transform="translate(13.62 -21.63) rotate(19.17)"/><path class="cls-1" d="M62.16,52.72l-.41-6.33,5.79,2-4.25,4.71A.65.65,0,0,1,62.16,52.72Z"/><line class="cls-1" x1="72.51" y1="15.44" x2="78.3" y2="17.46"/><line class="cls-1" x1="71.38" y1="18.69" x2="77.17" y2="20.7"/><path class="cls-1" d="M52.91,75.89v1.67a1.69,1.69,0,0,0,1.69,1.69h31"/><path class="cls-2" d="M33.35,28.53a75.67,75.67,0,0,0-9.45.74v15a77.43,77.43,0,0,1,9.45-1,53.19,53.19,0,0,1,9.46,1.49V30.41A31.75,31.75,0,0,0,33.35,28.53ZM24.84,38l5.67-5.67,2.91,2.92L27.75,41ZM35.58,41,32.67,38l5.66-5.67,2.92,2.92Z"/><path class="cls-3" d="M33.35,28.53a75.67,75.67,0,0,0-9.45.74v15a77.43,77.43,0,0,1,9.45-1,53.19,53.19,0,0,1,9.46,1.49V30.41A31.75,31.75,0,0,0,33.35,28.53ZM24.84,38l5.67-5.67,2.91,2.92L27.75,41ZM35.58,41,32.67,38l5.66-5.67,2.92,2.92Z"/></svg>