<svg id="圖層_1" data-name="圖層 1" xmlns="http://www.w3.org/2000/svg" viewBox="0 0 99.21 99.21"><defs><style>.cls-1,.cls-2{fill:none;stroke-width:1.5px;}.cls-1,.cls-2,.cls-4{stroke:#609931;}.cls-1{stroke-linecap:round;stroke-linejoin:round;}.cls-2,.cls-4{stroke-miterlimit:10;}.cls-3,.cls-4{fill:#609931;}.cls-4{stroke-width:0.5px;}</style></defs><title>icon</title><path class="cls-1" d="M66.11,48.17V42.9a1.52,1.52,0,0,0-1.46-1.58h-2a1.53,1.53,0,0,0-1.46,1.58v2.71"/><path class="cls-1" d="M29.43,48.17V42.9a1.52,1.52,0,0,1,1.46-1.58h2a1.53,1.53,0,0,1,1.46,1.58v2.71"/><path class="cls-2" d="M50.1,23.46a2.72,2.72,0,0,0-4.66,0"/><rect class="cls-3" x="46.73" y="69.15" width="2.09" height="8.99" rx="1.04" ry="1.04"/><path class="cls-4" d="M80.62,55.81l-25.83-13V56.65l24.53.91a1,1,0,0,1,0,2h0l-24.46-.91v1.5l27.46.92V58.64A3.16,3.16,0,0,0,80.62,55.81Z"/><path class="cls-4" d="M64.94,75.92l-10.15-4.3V78H65.62V77.1A1.32,1.32,0,0,0,64.94,75.92Z"/><path class="cls-4" d="M40.75,71.62l-10.16,4.3a1.33,1.33,0,0,0-.67,1.18V78H40.75Z"/><rect class="cls-4" x="43.16" y="42.49" height="14.13"/><path class="cls-4" d="M40.75,58.64,16,59.56h0a1,1,0,0,1,0-2l24.81-.92V42.78l-25.83,13a3.17,3.17,0,0,0-1.64,2.83v2.43l27.47-.92Z"/><rect class="cls-4" x="43.16" y="58.5" height="1.56"/><rect class="cls-1" x="43.16" y="17.15" width="9.22" height="66.91" rx="4.61" ry="4.61"/></svg>