<svg id="圖層_1" data-name="圖層 1" xmlns="http://www.w3.org/2000/svg" viewBox="0 0 164.41 127.56"><defs><style>.cls-1{fill:#ffe800;}.cls-2{fill:#ffaf00;}.cls-3{fill:#00b65d;}.cls-4,.cls-6,.cls-7,.cls-8{fill:none;stroke-linecap:round;stroke-linejoin:round;}.cls-4{stroke:#6ad12d;}.cls-5{fill:#6ad12d;}.cls-6{stroke:#00b65d;}.cls-6,.cls-7,.cls-8{stroke-width:1.5px;}.cls-7{stroke:#ffe800;}.cls-8{stroke:#ffaf00;}</style></defs><title>icon</title><path class="cls-1" d="M78.66,22.57H15.48a12,12,0,0,1,12,12V47.94H90.66V34.58A12,12,0,0,0,78.66,22.57ZM68.93,38.26A2.75,2.75,0,0,1,66.27,40c-1.33,0-2.66,0-4,0-.5,0-.79.22-.83.64-.05.58.15.88.68,1,1.07.2,2.13.38,3.2.56.31.06.42.24.34.56a.15.15,0,0,1-.14.12H53.79c-.14,0-.36.11-.39-.19s.05-.43.37-.49c1.07-.19,2.14-.36,3.22-.56a.82.82,0,0,0,.58-1.22.73.73,0,0,0-.73-.4h-4a2.9,2.9,0,0,1-2.73-3.89,2.73,2.73,0,0,1,.63-1,2.23,2.23,0,0,0,.66-1.33,2.41,2.41,0,0,1,1.25-1.86,1.44,1.44,0,0,1,.48-.24,2,2,0,0,0,1.06-.88,2.35,2.35,0,0,1,1.39-1.12l.12-.05a1,1,0,0,1,.39-.08.87.87,0,0,1,.45,0,2.43,2.43,0,0,0,1.79-.41,2.49,2.49,0,0,1,2.59.06,3.28,3.28,0,0,0,.81.36,13.14,13.14,0,0,1,1.4,0,2.51,2.51,0,0,1,1.74,1.15,2.94,2.94,0,0,0,.72.81h0a5.68,5.68,0,0,1,1,.47,2.48,2.48,0,0,1,1.09,1.54,3.47,3.47,0,0,0,.28,1,3.48,3.48,0,0,0,.41.52A2.77,2.77,0,0,1,68.93,38.26Z"/><path class="cls-2" d="M35.73,82.87H58.25v-28H35.73ZM47,58.19a4.54,4.54,0,1,1-4.54,4.54A4.53,4.53,0,0,1,47,58.19Zm-6.08,17a5.63,5.63,0,0,1,5.62-5.63h.92a5.63,5.63,0,0,1,5.62,5.63V80H40.91Z"/><path class="cls-2" d="M27.44,50.53V86.78H90.62V50.53ZM59.25,83.37a.5.5,0,0,1-.5.5H35.23a.5.5,0,0,1-.5-.5v-29a.5.5,0,0,1,.5-.5H58.75a.5.5,0,0,1,.5.5Zm23.84-2.64H64.29a.5.5,0,0,1-.5-.5.5.5,0,0,1,.5-.5h18.8a.51.51,0,0,1,.5.5A.5.5,0,0,1,83.09,80.73Zm0-4.8H64.29a.5.5,0,0,1,0-1h18.8a.5.5,0,0,1,0,1Zm0-4.8H64.29a.5.5,0,0,1-.5-.5.5.5,0,0,1,.5-.5h18.8a.5.5,0,0,1,.5.5A.51.51,0,0,1,83.09,71.13Zm0-4.81H64.29a.5.5,0,0,1-.5-.5.5.5,0,0,1,.5-.5h18.8a.51.51,0,0,1,.5.5A.5.5,0,0,1,83.09,66.32Zm0-4.8H64.29a.5.5,0,0,1,0-1h18.8a.5.5,0,0,1,0,1Zm0-4.8H64.29a.5.5,0,0,1-.5-.5.5.5,0,0,1,.5-.5h18.8a.5.5,0,0,1,.5.5A.51.51,0,0,1,83.09,56.72Z"/><path class="cls-3" d="M27.57,89.36l-.13,13.93a12,12,0,1,0,24,0H90.62l.13-13.93ZM75,98.24H43.34a.5.5,0,0,1-.5-.5.5.5,0,0,1,.5-.5H75a.51.51,0,0,1,.5.5A.5.5,0,0,1,75,98.24Zm0-4.07H43.34a.5.5,0,1,1,0-1H75a.5.5,0,0,1,0,1Z"/><path class="cls-4" d="M3.43,34.58a12,12,0,1,1,24,0"/><path class="cls-4" d="M78.61,22.57a12,12,0,0,1,12,12"/><line class="cls-4" x1="90.62" y1="34.66" x2="90.62" y2="98.72"/><line class="cls-4" x1="27.44" y1="103.29" x2="27.44" y2="34.66"/><line class="cls-4" x1="3.43" y1="34.58" x2="22.86" y2="34.58"/><path class="cls-4" d="M102.62,115.3a12,12,0,0,0,12-12H51.45a12,12,0,0,1-12,12"/><path class="cls-4" d="M39.44,115.3a12,12,0,0,1-12-12"/><line class="cls-4" x1="15.43" y1="22.57" x2="78.61" y2="22.57"/><line class="cls-4" x1="39.44" y1="115.3" x2="102.62" y2="115.3"/><polygon class="cls-4" points="123.98 28.5 131.31 26.51 131.61 34.1 138.72 36.8 134.49 43.12 138.66 49.47 131.53 52.1 131.15 59.7 123.84 57.63 119.08 63.55 114.37 57.59 107.04 59.58 106.74 51.98 99.64 49.29 103.86 42.97 99.7 36.61 106.83 33.98 107.2 26.39 114.51 28.45 119.28 22.53 123.98 28.5"/><path class="cls-5" d="M134.5,38.15,128.93,36l-.24-6-5.75,1.56L119.25,27l-3.73,4.64L109.79,30l-.29,6L103.9,38l3.27,5-3.31,5,5.57,2.11.23,6,5.75-1.56,3.69,4.68,3.73-4.65,5.74,1.62.29-6,5.59-2.06-3.26-5ZM116.39,50.89l-6.52-8.56,2.7-2,4.16,5.48,9.21-9.2,2.39,2.4Z"/><line class="cls-6" x1="154.03" y1="39.97" x2="154.03" y2="44.08"/><line class="cls-6" x1="154.03" y1="53.88" x2="154.03" y2="49.77"/><line class="cls-6" x1="147.07" y1="46.93" x2="151.18" y2="46.93"/><line class="cls-6" x1="160.98" y1="46.93" x2="156.87" y2="46.93"/><line class="cls-7" x1="95.52" y1="4.26" x2="95.52" y2="8.37"/><line class="cls-7" x1="95.52" y1="18.17" x2="95.52" y2="14.06"/><line class="cls-7" x1="88.56" y1="11.22" x2="92.67" y2="11.22"/><line class="cls-7" x1="102.47" y1="11.22" x2="98.36" y2="11.22"/><line class="cls-8" x1="117.16" y1="71.32" x2="117.16" y2="75.43"/><line class="cls-8" x1="117.16" y1="85.23" x2="117.16" y2="81.12"/><line class="cls-8" x1="110.2" y1="78.27" x2="114.32" y2="78.27"/><line class="cls-8" x1="124.11" y1="78.27" x2="120" y2="78.27"/></svg>