<svg id="圖層_1" data-name="圖層 1" xmlns="http://www.w3.org/2000/svg" viewBox="0 0 99.21 99.21"><defs><style>.cls-1,.cls-2,.cls-3{fill:#ffe800;}.cls-1,.cls-2,.cls-4,.cls-5{stroke:#ffe800;}.cls-1,.cls-2,.cls-4{stroke-miterlimit:10;}.cls-1{stroke-width:0.5px;}.cls-4,.cls-5{fill:none;}.cls-5{stroke-linecap:round;stroke-linejoin:round;}</style></defs><title>icon</title><circle class="cls-1" cx="86.61" cy="27.55" r="4.04"/><circle class="cls-1" cx="86.61" cy="41.32" r="4.04"/><circle class="cls-1" cx="86.61" cy="55.09" r="4.04"/><circle class="cls-1" cx="86.61" cy="68.86" r="4.04"/><path class="cls-2" d="M71,25a4.75,4.75,0,0,0-3.79-1.64h-.09A5.4,5.4,0,0,1,71,25Z"/><path class="cls-2" d="M16.09,23.36H16A4.77,4.77,0,0,0,12.21,25,5.4,5.4,0,0,1,16.09,23.36Z"/><rect class="cls-3" x="10.67" y="34.92" width="61.87" height="3.22"/><path class="cls-3" d="M10.67,39.14V66.82c0,3.64,1.69,6.59,5.33,6.59H67.21c3.64,0,5.33-3,5.33-6.59V39.14Zm9.25,30a1,1,0,0,1-1,1H16.41a1,1,0,0,1-1-1V66.67a1,1,0,0,1,1-1h2.51a1,1,0,0,1,1,1Zm0-7.93a1,1,0,0,1-1,1H16.42a1,1,0,0,1-1-1V58.77a1,1,0,0,1,1-1h2.49a1,1,0,0,1,1,1Zm0-7.9a1,1,0,0,1-1,1H16.42a1,1,0,0,1-1-1V50.86a1,1,0,0,1,1-1h2.49a1,1,0,0,1,1,1Zm0-7.91a1,1,0,0,1-1,1H16.42a1,1,0,0,1-1-1V43a1,1,0,0,1,1-1h2.49a1,1,0,0,1,1,1Zm7.93,23.74a1,1,0,0,1-1,1H24.34a1,1,0,0,1-1-1V66.67a1,1,0,0,1,1-1h2.51a1,1,0,0,1,1,1Zm0-7.93a1,1,0,0,1-1,1H24.35a1,1,0,0,1-1-1V58.77a1,1,0,0,1,1-1h2.48a1,1,0,0,1,1,1Zm0-7.9a1,1,0,0,1-1,1H24.35a1,1,0,0,1-1-1V50.86a1,1,0,0,1,1-1h2.48a1,1,0,0,1,1,1Zm0-7.91a1,1,0,0,1-1,1H24.35a1,1,0,0,1-1-1V43a1,1,0,0,1,1-1h2.48a1,1,0,0,1,1,1Zm7.93,23.74a1,1,0,0,1-1,1H32.26a1,1,0,0,1-1-1V66.67a1,1,0,0,1,1-1h2.52a1,1,0,0,1,1,1Zm0-7.93a1,1,0,0,1-1,1H32.28a1,1,0,0,1-1-1V58.77a1,1,0,0,1,1-1h2.48a1,1,0,0,1,1,1Zm0-7.9a1,1,0,0,1-1,1H32.28a1,1,0,0,1-1-1V50.86a1,1,0,0,1,1-1h2.48a1,1,0,0,1,1,1Zm0-7.91a1,1,0,0,1-1,1H32.28a1,1,0,0,1-1-1V43a1,1,0,0,1,1-1h2.48a1,1,0,0,1,1,1Zm7.93,23.74a1,1,0,0,1-1,1H40.19a1,1,0,0,1-1-1V66.67a1,1,0,0,1,1-1H42.7a1,1,0,0,1,1,1Zm0-7.93a1,1,0,0,1-1,1H40.21a1,1,0,0,1-1-1V58.77a1,1,0,0,1,1-1h2.48a1,1,0,0,1,1,1Zm0-7.9a1,1,0,0,1-1,1H40.21a1,1,0,0,1-1-1V50.86a1,1,0,0,1,1-1h2.48a1,1,0,0,1,1,1Zm0-7.91a1,1,0,0,1-1,1H40.21a1,1,0,0,1-1-1V43a1,1,0,0,1,1-1h2.48a1,1,0,0,1,1,1Zm7.92,23.74a1,1,0,0,1-1,1H48.12a1,1,0,0,1-1-1V66.67a1,1,0,0,1,1-1h2.51a1,1,0,0,1,1,1Zm0-7.93a1,1,0,0,1-1,1H48.13a1,1,0,0,1-1-1V58.77a1,1,0,0,1,1-1h2.49a1,1,0,0,1,1,1Zm0-7.9a1,1,0,0,1-1,1H48.13a1,1,0,0,1-1-1V50.86a1,1,0,0,1,1-1h2.49a1,1,0,0,1,1,1Zm0-7.91a1,1,0,0,1-1,1H48.13a1,1,0,0,1-1-1V43a1,1,0,0,1,1-1h2.49a1,1,0,0,1,1,1Zm7.93,23.74a1,1,0,0,1-1,1H56.05a1,1,0,0,1-1-1V66.67a1,1,0,0,1,1-1h2.51a1,1,0,0,1,1,1Zm0-7.93a1,1,0,0,1-1,1H56.06a1,1,0,0,1-1-1V58.77a1,1,0,0,1,1-1h2.49a1,1,0,0,1,1,1Zm0-7.9a1,1,0,0,1-1,1H56.06a1,1,0,0,1-1-1V50.86a1,1,0,0,1,1-1h2.49a1,1,0,0,1,1,1Zm0-7.91a1,1,0,0,1-1,1H56.06a1,1,0,0,1-1-1V43a1,1,0,0,1,1-1h2.49a1,1,0,0,1,1,1Zm7.93,23.74a1,1,0,0,1-1,1H64a1,1,0,0,1-1-1V66.67a1,1,0,0,1,1-1h2.51a1,1,0,0,1,1,1Zm0-7.91a1,1,0,0,1-1,1H64a1,1,0,0,1-1-1V58.76a1,1,0,0,1,1-1h2.51a1,1,0,0,1,1,1Zm0-7.92a1,1,0,0,1-1,1H64a1,1,0,0,1-1-1V50.86a1,1,0,0,1,1-1h2.48a1,1,0,0,1,1,1Zm0-7.91a1,1,0,0,1-1,1H64a1,1,0,0,1-1-1V43a1,1,0,0,1,1-1h2.48a1,1,0,0,1,1,1Z"/><path class="cls-4" d="M10.67,38.14V30c0-3.65,1.69-6.6,5.33-6.6H67.21c3.64,0,5.33,2.95,5.33,6.6v8.18"/><path class="cls-4" d="M72.54,39.14V66.82c0,3.64-1.69,6.59-5.33,6.59H16c-3.64,0-5.33-3-5.33-6.59V39.14"/><path class="cls-5" d="M31.26,29.41c-1.88,0-3.41-2.91-3.41-6.5s1.53-6.5,3.41-6.5,3.41,2.91,3.41,6.5"/><circle class="cls-5" cx="30" cy="29.41" r="2.15"/><path class="cls-5" d="M52.78,29.41c-1.88,0-3.4-2.91-3.4-6.5s1.52-6.5,3.4-6.5,3.41,2.91,3.41,6.5"/><circle class="cls-5" cx="51.52" cy="29.41" r="2.15"/></svg>