<svg id="圖層_1" data-name="圖層 1" xmlns="http://www.w3.org/2000/svg" viewBox="0 0 99.21 99.21"><defs><style>.cls-1,.cls-2{fill:#ffb000;}.cls-2,.cls-3{stroke:#ffb000;stroke-miterlimit:10;stroke-width:0.5px;}.cls-3{fill:none;}</style></defs><title>icon</title><path class="cls-1" d="M61.56,27.91H21.65a5,5,0,0,0-5,5V72.86a5,5,0,0,0,5,5H61.56a5,5,0,0,0,5-5V33A5,5,0,0,0,61.56,27.91ZM56,43.81l.55,1a1,1,0,0,1-.37,1.39l-4.67,2.7a1,1,0,0,1-1.39-.38l-.55-1a1,1,0,0,1,.37-1.38l4.67-2.7A1,1,0,0,1,56,43.81ZM39.9,36.93a1,1,0,0,1,1-1H42a1,1,0,0,1,1,1v5.39a1,1,0,0,1-1,1H40.91a1,1,0,0,1-1-1Zm-7.39,1.6,1-.55a1,1,0,0,1,1.39.37L37.56,43a1,1,0,0,1-.37,1.38l-1,.56a1,1,0,0,1-1.38-.37l-2.7-4.68A1,1,0,0,1,32.51,38.53Zm-6,6.48.56-1a1,1,0,0,1,1.38-.38l4.68,2.7a1,1,0,0,1,.37,1.39l-.55,1a1,1,0,0,1-1.39.37l-4.68-2.7A1,1,0,0,1,26.54,45ZM24.61,53.6V52.49a1,1,0,0,1,1-1H31a1,1,0,0,1,1,1V53.6a1,1,0,0,1-1,1h-5.4A1,1,0,0,1,24.61,53.6ZM27.24,62l-.56-1a1,1,0,0,1,.37-1.39L31.73,57a1,1,0,0,1,1.38.37l.56,1a1,1,0,0,1-.37,1.38l-4.68,2.7A1,1,0,0,1,27.24,62Zm10.55.92-2.7,4.68a1,1,0,0,1-1.38.37l-1-.56A1,1,0,0,1,32.38,66l2.7-4.68A1,1,0,0,1,36.46,61l1,.56A1,1,0,0,1,37.79,62.92Zm5.52,6a1,1,0,0,1-1,1H41.19a1,1,0,0,1-1-1v-5.4a1,1,0,0,1,1-1H42.3a1,1,0,0,1,1,1Zm1.13-13.15H39v-5.4h5.4Zm1-12.85,2.7-4.68a1,1,0,0,1,1.38-.37l1,.56a1,1,0,0,1,.37,1.38l-2.7,4.68a1,1,0,0,1-1.39.37l-1-.56A1,1,0,0,1,45.42,42.89ZM50.7,67.28l-1,.55a1,1,0,0,1-1.38-.37l-2.7-4.68A1,1,0,0,1,46,61.4l1-.56a1,1,0,0,1,1.38.38l2.7,4.67A1,1,0,0,1,50.7,67.28Zm6-6.48-.56,1a1,1,0,0,1-1.38.38l-4.68-2.7a1,1,0,0,1-.37-1.39l.56-1a1,1,0,0,1,1.38-.37l4.68,2.7A1,1,0,0,1,56.67,60.8Zm1.93-7.48a1,1,0,0,1-1,1h-5.4a1,1,0,0,1-1-1V52.21a1,1,0,0,1,1-1h5.4a1,1,0,0,1,1,1Z"/><circle class="cls-2" cx="86.61" cy="32.1" r="4.04"/><circle class="cls-2" cx="86.61" cy="45.87" r="4.04"/><circle class="cls-3" cx="86.61" cy="59.63" r="4.04"/><circle class="cls-3" cx="86.61" cy="73.4" r="4.04"/></svg>