<svg id="圖層_1" data-name="圖層 1" xmlns="http://www.w3.org/2000/svg" viewBox="0 0 99.21 99.21"><defs><style>.cls-1,.cls-5{fill:none;}.cls-1,.cls-3,.cls-4,.cls-5{stroke:#00b65d;stroke-linecap:round;stroke-linejoin:round;}.cls-2,.cls-3,.cls-4{fill:#00b65d;}.cls-4,.cls-5{stroke-width:0.5px;}</style></defs><title>icon</title><rect class="cls-1" x="12.24" y="26.76" width="58.73" height="37.95"/><path class="cls-2" d="M4.57,69.06H78.64a0,0,0,0,1,0,0v1.48a1.94,1.94,0,0,1-1.94,1.94H6.51a1.94,1.94,0,0,1-1.94-1.94V69.06A0,0,0,0,1,4.57,69.06Z"/><rect class="cls-1" x="16.52" y="30.72" width="50.16" height="33.32"/><circle class="cls-3" cx="33.06" cy="41.44" r="3.83"/><path class="cls-3" d="M32.67,47.2h.77A4.75,4.75,0,0,1,38.19,52V56a0,0,0,0,1,0,0H27.92a0,0,0,0,1,0,0V52A4.75,4.75,0,0,1,32.67,47.2Z"/><path class="cls-2" d="M16.52,30.72V64H66.69V30.72ZM43,58.88H23.12V34.4H43Zm16.18-7.09H46.91V49.12H59.17Zm0-5H46.91V44.13H59.17Zm0-5H46.91V39.13H59.17Zm0-5H46.91V34.14H59.17Z"/><circle class="cls-4" cx="86.61" cy="28.95" r="4.04"/><circle class="cls-5" cx="86.61" cy="42.72" r="4.04"/><circle class="cls-5" cx="86.61" cy="56.49" r="4.04"/><circle class="cls-5" cx="86.61" cy="70.26" r="4.04"/></svg>