<svg id="圖層_1" data-name="圖層 1" xmlns="http://www.w3.org/2000/svg" viewBox="0 0 141.73 141.73"><defs><style>.cls-1,.cls-2{fill:none;stroke-linecap:round;stroke-linejoin:round;stroke-width:1.5px;}.cls-1{stroke:#6ad12d;}.cls-2{stroke:#69cf2d;}.cls-3{fill:#69cf2d;}</style></defs><title>icon</title><rect class="cls-1" x="61.02" y="53.87" width="2.18" height="2.43" rx="0.76" ry="0.76" transform="translate(7.02 117.19) rotate(-90)"/><rect class="cls-1" x="61.02" y="55.05" width="2.18" height="4.43" rx="1.03" ry="1.03" transform="translate(4.84 119.37) rotate(-90)"/><rect class="cls-1" x="61.02" y="57.22" width="2.18" height="4.43" rx="1.03" ry="1.03" transform="translate(2.67 121.55) rotate(-90)"/><rect class="cls-1" x="61.06" y="59.94" width="2.18" height="3.35" rx="0.9" ry="0.9" transform="translate(0.53 123.76) rotate(-90)"/><rect class="cls-1" x="76.09" y="53.87" width="2.18" height="2.43" rx="0.76" ry="0.76" transform="translate(22.1 132.27) rotate(-90)"/><rect class="cls-1" x="76.09" y="55.05" width="2.18" height="4.43" rx="1.03" ry="1.03" transform="translate(19.92 134.44) rotate(-90)"/><rect class="cls-1" x="76.09" y="57.22" width="2.18" height="4.43" rx="1.03" ry="1.03" transform="translate(17.74 136.62) rotate(-90)"/><rect class="cls-1" x="76.05" y="59.94" width="2.18" height="3.35" rx="0.9" ry="0.9" transform="translate(15.52 138.76) rotate(-90)"/><path class="cls-1" d="M65.58,37.48s-7.17.39-10.36,6.12-4.37,12.52-4.3,14.86a3.87,3.87,0,0,0,3.45,3.65h5.28"/><line class="cls-1" x1="58.25" y1="47.67" x2="58.25" y2="55.18"/><line class="cls-1" x1="58.25" y1="62.11" x2="58.25" y2="66.63"/><line class="cls-1" x1="54.58" y1="55.18" x2="59.43" y2="55.18"/><path class="cls-1" d="M73.52,37.48s7.17.39,10.36,6.12,4.37,12.52,4.3,14.86a3.87,3.87,0,0,1-3.45,3.65H79.45"/><line class="cls-1" x1="80.85" y1="47.67" x2="80.85" y2="55.18"/><line class="cls-1" x1="80.85" y1="62.11" x2="80.85" y2="66.61"/><line class="cls-1" x1="84.52" y1="55.18" x2="79.67" y2="55.18"/><line class="cls-1" x1="66.73" y1="34.95" x2="66.73" y2="33.02"/><line class="cls-1" x1="72.37" y1="33.02" x2="72.37" y2="34.95"/><path class="cls-1" d="M67.82,38.42l-2-1.08a.66.66,0,0,1-.22-.94l1-1.45,2.87,1.34-.74,1.8A.67.67,0,0,1,67.82,38.42Z"/><path class="cls-1" d="M71.28,38.42l2-1.08a.66.66,0,0,0,.22-.94l-1-1.45-2.87,1.34.74,1.8A.67.67,0,0,0,71.28,38.42Z"/><line class="cls-1" x1="67.78" y1="50.01" x2="68.8" y2="39.94"/><line class="cls-1" x1="70.29" y1="39.94" x2="71.32" y2="50.01"/><path class="cls-1" d="M70.91,38.65a1.36,1.36,0,1,1-2.72,0"/><line class="cls-1" x1="62.15" y1="66.61" x2="62.15" y2="62.71"/><line class="cls-1" x1="77.14" y1="62.71" x2="77.14" y2="66.61"/><polyline class="cls-1" points="62.15 54 62.15 50.01 77.14 50.01 77.14 54"/><path class="cls-1" d="M31.62,109s-6.05.33-8.74,5.17a30.77,30.77,0,0,0-3.63,12.53c0,5.5,1.42,7.19,1.42,7.19"/><line class="cls-1" x1="25.43" y1="117.63" x2="25.43" y2="133.61"/><path class="cls-1" d="M21.79,127.11a3.22,3.22,0,0,0,3.21,0"/><path class="cls-1" d="M38.32,109s6,.33,8.74,5.17a30,30,0,0,1,3.63,12.53,3.28,3.28,0,0,1-2.92,3.08H44.5"/><line class="cls-1" x1="44.5" y1="117.63" x2="44.5" y2="133.61"/><line class="cls-1" x1="47.6" y1="123.96" x2="44.5" y2="123.96"/><line class="cls-1" x1="32.59" y1="106.9" x2="32.59" y2="105.27"/><line class="cls-1" x1="37.35" y1="105.27" x2="37.35" y2="106.9"/><path class="cls-2" d="M26.16,95.48c0,3.45,1.68,9.86,8.8,9.86"/><path class="cls-2" d="M43.76,95.48c0,3.45-1.69,9.86-8.8,9.86"/><path class="cls-2" d="M26.16,93.48s-1.93-.58-1.93.92c0,1,1.17,1.25,1.93,1"/><path class="cls-2" d="M43.76,93.48s1.93-.58,1.93.92c0,1-1.18,1.25-1.93,1"/><path class="cls-2" d="M27.43,92.8c0,3,2.05,8.65,7.53,8.65"/><path class="cls-2" d="M42.49,92.8c0,3-2.05,8.65-7.53,8.65"/><path class="cls-2" d="M31.67,108.83A5,5,0,0,0,35,110"/><path class="cls-2" d="M38.27,108.82A5,5,0,0,1,35,110"/><path class="cls-2" d="M32.59,107a5.3,5.3,0,0,0,2.37.51"/><path class="cls-2" d="M37.35,107a5.22,5.22,0,0,1-2.39.52"/><line class="cls-1" x1="31.67" y1="108.12" x2="32.51" y2="106.9"/><line class="cls-1" x1="38.27" y1="108.12" x2="37.43" y2="106.9"/><path class="cls-1" d="M31.89,83.86S33.73,82,37.66,82a6.62,6.62,0,0,1,6.67,6.1V91.4"/><path class="cls-1" d="M25.79,91.4V88.13a5.41,5.41,0,0,1,5.45-5.47"/><line class="cls-1" x1="69.02" y1="108.47" x2="69.02" y2="106.84"/><path class="cls-2" d="M68.1,110.41a4.94,4.94,0,0,0,3.28,1.19"/><path class="cls-2" d="M72.16,111.55a5,5,0,0,1-.78,0"/><path class="cls-2" d="M69,108.57a8,8,0,0,0,3.4.61"/><line class="cls-1" x1="68.09" y1="109.7" x2="68.93" y2="108.47"/><path class="cls-1" d="M68,110.61a10.5,10.5,0,0,0-8,5.16c-2.69,4.84-4.47,10.56-4.41,12.54s2,2.84,2.91,3.08c1.6.39,5,.78,5,.78"/><path class="cls-1" d="M62.65,119.2s1.53,7.23,1.53,9.71a21.89,21.89,0,0,1-1.53,6.27"/><line class="cls-1" x1="60.66" y1="125.54" x2="64.01" y2="126.88"/><path class="cls-1" d="M77.38,111.3a9.45,9.45,0,0,1,5.26,4.47c2.7,4.84,4.47,10.56,4.42,12.54s-2,2.84-2.91,3.08c-1.6.39-5.06.78-5.06.78"/><path class="cls-1" d="M80.09,119.2s-1.54,7.23-1.54,9.71a21.78,21.78,0,0,0,1.54,6.27"/><line class="cls-1" x1="82.08" y1="125.54" x2="78.72" y2="126.88"/><line class="cls-1" x1="71.39" y1="131.67" x2="71.39" y2="123.08"/><path class="cls-1" d="M71.43,84.49c4.83,0,8,4.12,8.75,7.54a13.19,13.19,0,0,1-2.9,12"/><path class="cls-1" d="M69.62,95.45s-3.52,3.65,1.19,9.85c4.53,6-1.77,11.52-1.77,11.52s9.34-.84,9.07-9.65c-.14-4.32-3.3-4.13-4.61-11C73.13,94.25,71.19,93.33,69.62,95.45Z"/><path class="cls-1" d="M68.9,95.34a2.56,2.56,0,0,1-.12-.79,2.7,2.7,0,0,1,5.39,0,2.77,2.77,0,0,1-.21,1"/><path class="cls-1" d="M71.39,84.49c-4.83,0-8,4.12-8.75,7.54-.37,1.79-1.8,7.18,2.89,12,2.81,2.9,5.63,2.11,5.63,2.11"/><path class="cls-1" d="M111.22,109s6,.33,8.74,5.17a30.93,30.93,0,0,1,3.63,12.53c0,5.5-1.43,7.19-1.43,7.19"/><line class="cls-1" x1="117.4" y1="117.63" x2="117.4" y2="133.61"/><path class="cls-1" d="M121,127.11a3.23,3.23,0,0,1-3.21,0"/><path class="cls-1" d="M104.47,109s-6,.33-8.74,5.17a30.61,30.61,0,0,0-3.63,12.53c0,5.5,1.42,7.19,1.42,7.19"/><line class="cls-1" x1="98.28" y1="117.63" x2="98.28" y2="133.61"/><path class="cls-1" d="M94.64,127.11a3.23,3.23,0,0,0,3.21,0"/><line class="cls-1" x1="105.44" y1="106.9" x2="105.44" y2="105.27"/><line class="cls-1" x1="110.19" y1="105.27" x2="110.19" y2="106.9"/><path class="cls-2" d="M99,95.48c0,3.45,1.69,9.86,8.81,9.86"/><path class="cls-2" d="M116.61,95.48c0,3.45-1.69,9.86-8.8,9.86"/><path class="cls-2" d="M99,93.48s-1.92-.58-1.92.92c0,1,1.17,1.25,1.92,1"/><path class="cls-2" d="M116.61,93.48s1.92-.58,1.92.92c0,1-1.17,1.25-1.92,1"/><path class="cls-2" d="M104.52,108.83a5,5,0,0,0,3.29,1.2"/><path class="cls-2" d="M111.11,108.82a5,5,0,0,1-3.3,1.21"/><path class="cls-2" d="M105.44,107a5.3,5.3,0,0,0,2.37.51"/><path class="cls-2" d="M110.19,107a5.17,5.17,0,0,1-2.38.52"/><line class="cls-1" x1="104.52" y1="108.12" x2="105.36" y2="106.9"/><line class="cls-1" x1="111.11" y1="108.12" x2="110.27" y2="106.9"/><path class="cls-1" d="M98.64,91.4V88.13a5.41,5.41,0,0,1,5.44-5.47"/><path class="cls-1" d="M116.85,91.4V88.13a5.42,5.42,0,0,0-5.45-5.47"/><path class="cls-1" d="M106.46,84.71s-.08-2.59,1.67-3.76"/><path class="cls-1" d="M108.28,84.69a4.35,4.35,0,0,1,1.59-2.4"/><path class="cls-1" d="M101.25,96.84a7.49,7.49,0,0,0,6.5,3.17,8.94,8.94,0,0,0,7-3.17"/><line class="cls-1" x1="73.88" y1="73.74" x2="65.22" y2="73.74"/><polygon class="cls-1" points="78.86 81.71 60.24 81.71 63.04 69.95 76.06 69.95 78.86 81.71"/><line class="cls-1" x1="74.47" y1="76.08" x2="64.63" y2="76.08"/><line class="cls-1" x1="63.9" y1="78.42" x2="75.2" y2="78.42"/><circle class="cls-2" cx="75.98" cy="21.08" r="2.87"/><circle class="cls-2" cx="66.74" cy="21.08" r="2.87"/><path class="cls-2" d="M73.11,21.08l-.77-.28a3,3,0,0,0-2,0l-.77.28"/><path class="cls-2" d="M80.36,16.1V12.38a6,6,0,0,0-6.28-5.83c-5.68,0-7.46,1.36-11.52,1.36-4.34,0-5-.35-5-.35V10.1c0,3.51,3.14,5.29,6.9,5.08,3.52-.2,4.81-2.27,9.4-2.27A7.21,7.21,0,0,1,78,14.23"/><path class="cls-2" d="M80,21.43c0,3.94-1.92,11.25-10,11.25"/><path class="cls-2" d="M59.9,21.43c0,3.94,1.93,11.25,10.05,11.25"/><path class="cls-2" d="M80,19.15s2.2-.66,2.2,1.05c0,1.15-1.34,1.42-2.2,1.11"/><path class="cls-2" d="M59.9,19.15s-2.19-.66-2.19,1.05c0,1.15,1.33,1.42,2.19,1.11"/><path class="cls-3" d="M71.57,27.14a1.35,1.35,0,0,1,2.29.29A2.32,2.32,0,0,0,76.19,29s-1.73,1.4-3.32.86C71.09,29.21,71.17,27.78,71.57,27.14Z"/><path class="cls-3" d="M71,27.14a1.35,1.35,0,0,0-2.29.29A2.33,2.33,0,0,1,66.39,29s1.72,1.4,3.32.86C71.49,29.21,71.41,27.78,71,27.14Z"/><path class="cls-2" d="M69.36,26.31a2,2,0,0,0,2.58.59,1.85,1.85,0,0,0,.53-2.41"/><path class="cls-2" d="M61.6,17.33a8.8,8.8,0,0,1-2.37-1"/><line class="cls-2" x1="15.54" y1="66.63" x2="126.19" y2="66.63"/></svg>