<svg id="圖層_1" data-name="圖層 1" xmlns="http://www.w3.org/2000/svg" viewBox="0 0 141.73 141.73"><defs><style>.cls-1,.cls-2{fill:none;stroke-linecap:round;stroke-linejoin:round;stroke-width:1.5px;}.cls-1{stroke:#6ad12d;}.cls-2{stroke:#69cf2d;}.cls-3{fill:#69cf2d;}</style></defs><title>icon</title><line class="cls-1" x1="121.09" y1="88.59" x2="121.09" y2="100.14"/><line class="cls-1" x1="126.73" y1="100.14" x2="119.28" y2="100.14"/><line class="cls-1" x1="26.64" y1="117.73" x2="26.64" y2="111.72"/><line class="cls-1" x1="49.7" y1="111.72" x2="49.7" y2="117.73"/><rect class="cls-1" x="24.9" y="98.13" width="3.35" height="3.74" rx="1.17" ry="1.17" transform="translate(-73.42 126.57) rotate(-90)"/><rect class="cls-1" x="24.9" y="99.94" width="3.35" height="6.82" rx="1.59" ry="1.59" transform="translate(-76.77 129.92) rotate(-90)"/><rect class="cls-1" x="24.9" y="103.29" width="3.35" height="6.82" rx="1.59" ry="1.59" transform="translate(-80.12 133.27) rotate(-90)"/><rect class="cls-1" x="24.96" y="107.47" width="3.35" height="5.15" rx="1.38" ry="1.38" transform="translate(-83.4 136.68) rotate(-90)"/><rect class="cls-1" x="48.09" y="98.13" width="3.35" height="3.74" rx="1.17" ry="1.17" transform="translate(-50.23 149.76) rotate(-90)"/><rect class="cls-1" x="48.09" y="99.94" width="3.35" height="6.82" rx="1.59" ry="1.59" transform="translate(-53.58 153.11) rotate(-90)"/><rect class="cls-1" x="48.09" y="103.29" width="3.35" height="6.82" rx="1.59" ry="1.59" transform="translate(-56.93 156.46) rotate(-90)"/><rect class="cls-1" x="48.03" y="107.47" width="3.35" height="5.15" rx="1.38" ry="1.38" transform="translate(-60.34 159.75) rotate(-90)"/><rect class="cls-1" x="113.81" y="98.13" width="3.35" height="3.74" rx="1.17" ry="1.17" transform="translate(15.49 215.48) rotate(-90)"/><rect class="cls-1" x="113.81" y="99.94" width="3.35" height="6.82" rx="1.59" ry="1.59" transform="translate(12.14 218.83) rotate(-90)"/><rect class="cls-1" x="113.81" y="103.29" width="3.35" height="6.82" rx="1.59" ry="1.59" transform="translate(8.79 222.18) rotate(-90)"/><rect class="cls-1" x="113.75" y="107.47" width="3.35" height="5.15" rx="1.38" ry="1.38" transform="translate(5.38 225.46) rotate(-90)"/><path class="cls-1" d="M85.24,78.79c-1.34,1.7-2.8,4.32-4.09,5.85"/><path class="cls-1" d="M97.6,72.91a64,64,0,0,0-10.32,3.9"/><path class="cls-1" d="M109.81,72.91s11,.6,15.94,9.43,6.71,19.24,6.61,22.85a6,6,0,0,1-5.31,5.61h-8.12"/><line class="cls-1" x1="99.37" y1="69.02" x2="99.37" y2="66.05"/><line class="cls-1" x1="108.04" y1="66.05" x2="108.04" y2="69.02"/><circle class="cls-2" cx="94.05" cy="47.64" r="4.59"/><circle class="cls-2" cx="108.82" cy="47.64" r="4.59"/><path class="cls-2" d="M98.64,47.64l1.23-.44a4.64,4.64,0,0,1,3.12,0l1.24.44"/><path class="cls-2" d="M87.05,39.69V33.74a9.66,9.66,0,0,1,10-9.31c9.08,0,11.91,2.17,18.4,2.17,6.94,0,7.92-.56,7.92-.56v4.05c0,5.61-5,8.47-11,8.13-5.62-.32-7.69-3.63-15-3.63a11.38,11.38,0,0,0-6.54,2.12"/><path class="cls-2" d="M87.64,48.2c0,6.3,3.07,18,16,18"/><path class="cls-2" d="M119.74,48.2c0,6.3-3.08,18-16,18"/><path class="cls-2" d="M87.64,44.57s-3.51-1.07-3.51,1.67c0,1.84,2.14,2.27,3.51,1.76"/><path class="cls-2" d="M119.74,44.57s3.51-1.07,3.51,1.67c0,1.84-2.14,2.27-3.51,1.76"/><path class="cls-3" d="M101.11,55.83a2.17,2.17,0,0,0-3.67.46,3.7,3.7,0,0,1-3.72,2.44S96.48,61,99,60.1C101.87,59.13,101.74,56.85,101.11,55.83Z"/><path class="cls-3" d="M102,55.83a2.17,2.17,0,0,1,3.67.46,3.7,3.7,0,0,0,3.72,2.44s-2.76,2.23-5.3,1.37C101.23,59.13,101.36,56.85,102,55.83Z"/><path class="cls-2" d="M104.64,54.51a3.29,3.29,0,0,1-4.13.94,3,3,0,0,1-.85-3.85"/><ellipse class="cls-2" cx="101.43" cy="59.74" rx="1.83" ry="2.39"/><path class="cls-2" d="M91.49,41.59a4.24,4.24,0,0,1,4,0"/><path class="cls-2" d="M110.69,41.59a4.25,4.25,0,0,0-4,0"/><path class="cls-1" d="M101.05,74.36,98,72.7a1,1,0,0,1-.34-1.44L99.23,69l4.42,2.06-1.14,2.77A1,1,0,0,1,101.05,74.36Z"/><path class="cls-1" d="M106.37,74.36l3-1.66a1,1,0,0,0,.34-1.44L108.19,69l-4.43,2.06,1.14,2.77A1,1,0,0,0,106.37,74.36Z"/><polyline class="cls-1" points="104.85 76.7 106.5 92.93 103.7 95.66 100.91 92.93 102.56 76.7"/><path class="cls-1" d="M105.8,74.72a2.09,2.09,0,0,1-4.18,0"/><path class="cls-1" d="M31.92,72.91s-11,.6-15.94,9.43-6.71,19.24-6.61,22.85a6,6,0,0,0,5.31,5.61H22.8"/><line class="cls-1" x1="20.64" y1="88.59" x2="20.64" y2="100.14"/><line class="cls-1" x1="20.64" y1="110.8" x2="20.64" y2="118.04"/><line class="cls-1" x1="15" y1="100.14" x2="22.46" y2="100.14"/><path class="cls-1" d="M44.13,72.91s11,.6,15.94,9.43,6.71,19.24,6.61,22.85a6,6,0,0,1-5.31,5.61H53.25"/><line class="cls-1" x1="55.41" y1="88.59" x2="55.41" y2="100.14"/><line class="cls-1" x1="55.41" y1="110.8" x2="55.41" y2="117.73"/><line class="cls-1" x1="61.05" y1="100.14" x2="53.6" y2="100.14"/><line class="cls-1" x1="33.69" y1="69.02" x2="33.69" y2="66.05"/><line class="cls-1" x1="42.36" y1="66.05" x2="42.36" y2="69.02"/><path class="cls-2" d="M22,48.2c0,6.3,3.08,18,16,18"/><path class="cls-2" d="M54.06,48.2c0,6.3-3.08,18-16.05,18"/><path class="cls-2" d="M22,44.57s-3.51-1.07-3.51,1.67c0,1.84,2.14,2.27,3.51,1.76"/><path class="cls-2" d="M54.06,44.57s3.51-1.07,3.51,1.67c0,1.84-2.14,2.27-3.51,1.76"/><path class="cls-2" d="M41.08,52.91c0,1.6-1.57,2.09-2.89,2.09s-2.88-.49-2.88-2.09"/><path class="cls-2" d="M28.06,41.59a4.25,4.25,0,0,1,4,0"/><path class="cls-2" d="M47.27,41.59a4.26,4.26,0,0,0-4,0"/><path class="cls-1" d="M35.37,74.36l-3-1.66A1,1,0,0,1,32,71.26L33.55,69,38,71.08l-1.14,2.77A1,1,0,0,1,35.37,74.36Z"/><path class="cls-1" d="M40.69,74.36l3-1.66A1,1,0,0,0,44,71.26L42.51,69l-4.43,2.06,1.14,2.77A1,1,0,0,0,40.69,74.36Z"/><line class="cls-1" x1="35.31" y1="92.19" x2="36.88" y2="76.7"/><line class="cls-1" x1="39.17" y1="76.7" x2="40.74" y2="92.19"/><path class="cls-1" d="M40.12,74.72a2.09,2.09,0,1,1-4.18,0"/><circle class="cls-3" cx="101.43" cy="56.54" r="0.72"/><path class="cls-2" d="M116.61,40.82a14.1,14.1,0,0,0,3.79-1.67"/><path class="cls-2" d="M116.92,43.2A7.39,7.39,0,0,0,120.05,42"/><path class="cls-2" d="M75.7,75.14s4.25,7.33,6,10.51"/><path class="cls-2" d="M66.69,78.79s7.42,12.29,8.13,13.65c2.42,3.45,6,7,9.68,4s3.75-3.82,3.75-3.82"/><path class="cls-1" d="M85.88,89.57s.46,2.84,2.37,2.61"/><path class="cls-1" d="M85.24,78.79s-.34-2.17.64-2.55,1.5-.16,1.68,2.4"/><ellipse class="cls-3" cx="45.14" cy="45.88" rx="1" ry="2.33"/><ellipse class="cls-3" cx="31.8" cy="45.88" rx="1" ry="2.33"/><rect class="cls-1" x="109.89" y="87.81" width="8.28" height="1.76"/><path class="cls-1" d="M73.1,66.1,74.36,64a1.4,1.4,0,0,0-.42-1.84l-.34-.24a1.25,1.25,0,0,0-1.72.41l-1.13,1.84"/><path class="cls-1" d="M70.75,64.16l-1.41-.86-.5-.3-5-3.06a1.32,1.32,0,0,0-1.82.44h0a1.32,1.32,0,0,0,.44,1.81"/><path class="cls-1" d="M73.89,73.43c1.37-3.09.78-5.6-.85-7.4"/><path class="cls-1" d="M67.32,65.16l-6.74-4.09a1.33,1.33,0,0,0-1.82.44h0a1.33,1.33,0,0,0,.44,1.82l5.64,3.44"/><path class="cls-1" d="M59.11,63.3a1.32,1.32,0,0,0-1.82.44h0a1.33,1.33,0,0,0,.44,1.82l5.81,3.53"/><path class="cls-1" d="M58.43,65.94a1.33,1.33,0,0,0-1.82.44h0a1.33,1.33,0,0,0,.44,1.82L63,71.81"/><path class="cls-1" d="M66.86,76.57c-1.61-1-3.32-3.14-3.48-4.51"/><path class="cls-1" d="M63.2,70s.92-3.21,3.09-4.62"/><path class="cls-1" d="M66.69,78.79c.64-1.57,1.48-3.31,2.93-4.07a9,9,0,0,1,5.38-1"/><path class="cls-1" d="M88.25,88.59s.2,23.17,1.24,29.14"/><polyline class="cls-1" points="26.64 98.32 26.64 92.19 49.7 92.19 49.7 98.32"/><path class="cls-2" d="M33.69,59.08s3.66,2.74,8.67,0"/><line class="cls-1" x1="103.71" y1="95.66" x2="104.64" y2="117.73"/><path class="cls-1" d="M32.4,27s3.37-3.34,10.54-3.34,12.16,6,12.16,11.11v4.52a.74.74,0,0,1-1.48,0V37.05a20.76,20.76,0,0,1-9.79,2.1c-4.43,0-8.93-2.85-13-6.36h0"/><path class="cls-1" d="M31.22,33.75s-5.53,3.63-8.45,2.47v3.1a.74.74,0,1,1-1.48,0V34.8a9.87,9.87,0,0,1,9.93-10"/><path class="cls-1" d="M69.24,70s-.91,1.43.87,4.7"/><line class="cls-1" x1="121.09" y1="110.8" x2="121.09" y2="117.73"/></svg>