<svg id="圖層_1" data-name="圖層 1" xmlns="http://www.w3.org/2000/svg" viewBox="0 0 141.73 141.73"><defs><style>.cls-1{fill:none;stroke:#6ad12d;stroke-linecap:round;stroke-linejoin:round;stroke-width:1.5px;}.cls-2{fill:#6ad12d;}.cls-3{fill:#fff;}</style></defs><title>icon</title><circle class="cls-1" cx="84.9" cy="118.06" r="3.43"/><rect class="cls-1" x="40.97" y="40.73" width="10.35" height="1.68" rx="0.84" ry="0.84" transform="translate(-13.8 25.34) rotate(-26.87)"/><rect class="cls-1" x="40.82" y="31.56" width="50" height="97.68" rx="6.26" ry="6.26" transform="translate(-29.23 38.43) rotate(-26.87)"/><rect class="cls-1" x="45.26" y="42.22" width="39.89" height="73.96" rx="3.08" ry="3.08" transform="translate(-28.76 38.03) rotate(-26.87)"/><circle class="cls-1" cx="37.67" cy="45.86" r="1.15"/><path class="cls-1" d="M103,120.16,71.73,136a8.64,8.64,0,0,1-11.62-3.8l-39-76.91A6.59,6.59,0,0,1,21,49.08"/><rect class="cls-2" x="43.97" y="53.36" width="32.46" height="31.92" transform="translate(-24.83 34.7) rotate(-26.87)"/><line class="cls-1" x1="32.58" y1="58.94" x2="68.17" y2="40.91"/><line class="cls-1" x1="68.07" y1="89.08" x2="80.32" y2="82.87"/><line class="cls-1" x1="59.24" y1="93.55" x2="65.82" y2="90.22"/><line class="cls-1" x1="77.3" y1="87.95" x2="81.75" y2="85.7"/><line class="cls-1" x1="60.67" y1="96.38" x2="75.07" y2="89.08"/><line class="cls-1" x1="66.63" y1="96.91" x2="76.33" y2="91.99"/><line class="cls-1" x1="62.1" y1="99.2" x2="64.4" y2="98.04"/><line class="cls-1" x1="79.53" y1="97.47" x2="86.04" y2="94.17"/><line class="cls-1" x1="64.96" y1="104.85" x2="77.3" y2="98.6"/><line class="cls-1" x1="75.07" y1="103.28" x2="87.47" y2="96.99"/><line class="cls-1" x1="66.39" y1="107.68" x2="73.06" y2="104.3"/><line class="cls-1" x1="71.64" y1="108.57" x2="78.62" y2="105.03"/><line class="cls-1" x1="67.82" y1="110.5" x2="69.54" y2="109.63"/><path class="cls-3" d="M65.83,80.31h0a.34.34,0,0,1-.26,0l-3.89-1.77-3.15,2.89a.26.26,0,0,1-.24.07.26.26,0,0,1-.21-.14L56,77.66l-4.24.48a.3.3,0,0,1-.24-.08.27.27,0,0,1-.09-.24l.48-4.24-3.72-2.1a.32.32,0,0,1-.15-.21.29.29,0,0,1,.08-.25L51,67.87,49.19,64a.28.28,0,0,1,0-.25.34.34,0,0,1,.21-.16l4.18-.86.85-4.18a.28.28,0,0,1,.15-.2h0a.3.3,0,0,1,.26,0l3.89,1.76,3.14-2.89a.32.32,0,0,1,.25-.07.29.29,0,0,1,.21.15L64.44,61l4.24-.49a.3.3,0,0,1,.24.08.33.33,0,0,1,.08.25l-.47,4.24,3.72,2.1a.26.26,0,0,1,.14.21.26.26,0,0,1-.07.24l-2.88,3.16,1.78,3.88a.34.34,0,0,1,0,.26.28.28,0,0,1-.2.15l-4.18.86L66,80.11A.3.3,0,0,1,65.83,80.31Zm-4.34-2.37a.3.3,0,0,1,.26,0l3.73,1.69.81-4a.3.3,0,0,1,.23-.23l4-.82-1.7-3.73a.29.29,0,0,1,0-.32l2.76-3-3.57-2a.32.32,0,0,1-.15-.29l.46-4.07-4.07.47a.31.31,0,0,1-.29-.15l-2-3.56-3,2.77a.29.29,0,0,1-.32.05L54.93,59l-.81,4a.3.3,0,0,1-.23.23l-4,.83,1.7,3.72a.29.29,0,0,1,0,.32l-2.76,3,3.56,2a.28.28,0,0,1,.15.29L52,77.52l4.07-.47a.3.3,0,0,1,.29.15l2,3.56,3-2.77Z"/><path class="cls-3" d="M66.88,62.63,63.4,63,61.67,60l-2.58,2.37L55.9,60.9l-.69,3.44-3.43.7,1.45,3.18-2.36,2.59,3.05,1.72L53.53,76l3.48-.4,1.73,3,2.58-2.36,3.19,1.44.69-3.43,3.43-.7-1.46-3.19,2.37-2.58L66.49,66.1Zm-6,11.54-5.71-2.71.85-1.8,3.65,1.73L62,64.11l1.9.6Z"/><line class="cls-1" x1="114.47" y1="30.94" x2="114.47" y2="35.05"/><line class="cls-1" x1="114.47" y1="44.85" x2="114.47" y2="40.74"/><line class="cls-1" x1="107.52" y1="37.89" x2="111.63" y2="37.89"/><line class="cls-1" x1="121.43" y1="37.89" x2="117.32" y2="37.89"/><line class="cls-1" x1="84.09" y1="2.77" x2="84.09" y2="6.89"/><line class="cls-1" x1="84.09" y1="16.69" x2="84.09" y2="12.57"/><line class="cls-1" x1="77.14" y1="9.73" x2="81.25" y2="9.73"/><line class="cls-1" x1="91.05" y1="9.73" x2="86.94" y2="9.73"/><line class="cls-1" x1="103.04" y1="59.14" x2="103.04" y2="63.26"/><line class="cls-1" x1="103.04" y1="73.06" x2="103.04" y2="68.94"/><line class="cls-1" x1="96.08" y1="66.1" x2="100.2" y2="66.1"/><line class="cls-1" x1="110" y1="66.1" x2="105.88" y2="66.1"/></svg>